<svg width="31" height="30" viewBox="0 0 31 30" fill="none" xmlns="http://www.w3.org/2000/svg">
<g clip-path="url(#clip0_1_3094)">
<g clip-path="url(#clip1_1_3094)">
<g clip-path="url(#clip2_1_3094)">
<path d="M26.2598 0.974976L29.3177 4.03307C29.4041 4.11918 29.4724 4.22147 29.5192 4.33407C29.5658 4.44667 29.5898 4.56736 29.5898 4.68925C29.5898 4.81113 29.5658 4.93183 29.5192 5.04442C29.4724 5.15702 29.4041 5.25931 29.3177 5.34543L26.2598 8.40352" stroke="black" stroke-width="1.85714" stroke-linecap="round" stroke-linejoin="round"/>
<path d="M5.44727 28.8315V6.54586C5.44727 6.05331 5.64293 5.58094 5.9912 5.23266C6.33949 4.88439 6.81185 4.68872 7.3044 4.68872H29.59" stroke="black" stroke-width="1.85714" stroke-linecap="round" stroke-linejoin="round"/>
<path d="M9.16096 25.5024L6.10412 28.5593C6.01789 28.6455 5.91549 28.714 5.8028 28.7606C5.69011 28.8074 5.5693 28.8314 5.44731 28.8314C5.32533 28.8314 5.20452 28.8074 5.09183 28.7606C4.97912 28.714 4.87674 28.6455 4.79051 28.5593L1.73242 25.5024" stroke="black" stroke-width="1.85714" stroke-linecap="round" stroke-linejoin="round"/>
<path d="M27.7324 28.832C28.2249 28.832 28.6974 28.6362 29.0456 28.288C29.3938 27.9398 29.5896 27.4674 29.5896 26.9749" stroke="black" stroke-width="1.85714" stroke-linecap="round" stroke-linejoin="round"/>
<path d="M24.0192 28.8324H22.1621" stroke="black" stroke-width="1.85714" stroke-linecap="round" stroke-linejoin="round"/>
<path d="M18.447 28.8324H16.5898" stroke="black" stroke-width="1.85714" stroke-linecap="round" stroke-linejoin="round"/>
<path d="M12.8767 28.8324H11.0195" stroke="black" stroke-width="1.85714" stroke-linecap="round" stroke-linejoin="round"/>
<path d="M29.5898 23.2605V21.4033" stroke="black" stroke-width="1.85714" stroke-linecap="round" stroke-linejoin="round"/>
<path d="M29.5898 17.6894V15.8323" stroke="black" stroke-width="1.85714" stroke-linecap="round" stroke-linejoin="round"/>
<path d="M29.5898 12.1176V10.2605" stroke="black" stroke-width="1.85714" stroke-linecap="round" stroke-linejoin="round"/>
</g>
</g>
</g>
<defs>
<clipPath id="clip0_1_3094">
<rect width="29.7142" height="29.7142" fill="white" transform="translate(0.804688 0.0456543)"/>
</clipPath>
<clipPath id="clip1_1_3094">
<rect width="29.7142" height="29.7142" fill="white" transform="translate(0.804688 0.0456543)"/>
</clipPath>
<clipPath id="clip2_1_3094">
<rect width="29.7142" height="29.7142" fill="white" transform="translate(0.804688 0.0456543)"/>
</clipPath>
</defs>
</svg>
