<svg width="31" height="31" viewBox="0 0 31 31" fill="none" xmlns="http://www.w3.org/2000/svg">
<g clip-path="url(#clip0_1_3088)">
<g clip-path="url(#clip1_1_3088)">
<path d="M17.4993 18.4941H29.4509L28.6206 23.5264C28.3231 25.2862 27.4119 26.8836 26.0483 28.0351C24.6848 29.1866 22.9576 29.8178 21.1728 29.8167H9.42257C7.63789 29.8178 5.91053 29.1866 4.54707 28.0351C3.18363 26.8836 2.27229 25.2862 1.97485 23.5264L1.14453 18.4941H8.06386" stroke="black" stroke-width="1.88709" stroke-linecap="round" stroke-linejoin="round"/>
<path d="M16.5564 25.4139H9.008C8.75877 25.4105 8.52066 25.3101 8.3444 25.1339C8.16817 24.9576 8.0677 24.7195 8.06445 24.4704V18.4945C8.06445 17.994 8.26326 17.514 8.61716 17.1601C8.97107 16.8062 9.45105 16.6074 9.95154 16.6074H15.6128C16.1133 16.6074 16.5933 16.8062 16.9472 17.1601C17.3011 17.514 17.4999 17.994 17.4999 18.4945V24.4704C17.4966 24.7195 17.3962 24.9576 17.2199 25.1339C17.0437 25.3101 16.8056 25.4105 16.5564 25.4139Z" stroke="black" stroke-width="1.88709" stroke-linecap="round" stroke-linejoin="round"/>
<path d="M20.0156 5.28443C20.0156 4.28346 20.4132 3.32348 21.1211 2.61569C21.8289 1.90789 22.7889 1.51025 23.7898 1.51025C24.7907 1.51025 25.7507 1.90789 26.4585 2.61569C27.1664 3.32348 27.564 4.28346 27.564 5.28443V18.4941" stroke="black" stroke-width="1.88709" stroke-linecap="round" stroke-linejoin="round"/>
<path d="M16.2402 9.05836C16.2402 8.05739 16.6379 7.09741 17.3457 6.38962C18.0535 5.68181 19.0134 5.28418 20.0144 5.28418C21.0153 5.28418 21.9753 5.68181 22.6831 6.38962C23.391 7.09741 23.7886 8.05739 23.7886 9.05836H16.2402Z" stroke="black" stroke-width="1.88709" stroke-linecap="round" stroke-linejoin="round"/>
</g>
</g>
<defs>
<clipPath id="clip0_1_3088">
<rect width="30.1934" height="30.1934" fill="white" transform="translate(0.201172 0.56665)"/>
</clipPath>
<clipPath id="clip1_1_3088">
<rect width="30.1934" height="30.1934" fill="white" transform="translate(0.201172 0.56665)"/>
</clipPath>
</defs>
</svg>
