<svg width="15" height="14" viewBox="0 0 15 14" fill="none" xmlns="http://www.w3.org/2000/svg">
<path d="M10.9456 14C8.84555 14 7.13672 12.2912 7.13672 10.1912C7.13672 8.09116 8.84555 6.38232 10.9456 6.38232C13.0456 6.38232 14.7544 8.09116 14.7544 10.1912C14.7544 12.2912 13.0456 14 10.9456 14ZM10.9456 7.41174C9.41516 7.41174 8.16613 8.66077 8.16613 10.1912C8.16613 11.7216 9.41516 12.9706 10.9456 12.9706C12.476 12.9706 13.725 11.7216 13.725 10.1912C13.725 8.66077 12.476 7.41174 10.9456 7.41174Z" fill="white"/>
<path d="M12.1738 10.7471H9.71002C9.42865 10.7471 9.19531 10.5138 9.19531 10.2324C9.19531 9.95105 9.42865 9.71771 9.71002 9.71771H12.1738C12.4551 9.71771 12.6885 9.95105 12.6885 10.2324C12.6885 10.5138 12.462 10.7471 12.1738 10.7471Z" fill="white"/>
<path d="M10.9463 12.0098C10.665 12.0098 10.4316 11.7765 10.4316 11.4951V9.03137C10.4316 8.75 10.665 8.51666 10.9463 8.51666C11.2277 8.51666 11.4611 8.75 11.4611 9.03137V11.4951C11.4611 11.7765 11.2277 12.0098 10.9463 12.0098Z" fill="white"/>
<path d="M7.37748 13.2452C7.16474 13.2452 6.95199 13.2177 6.78042 13.1559C5.02355 12.5589 0 9.64906 0 4.35101C0 1.94904 1.94216 0 4.33041 0C5.47649 0 6.57454 0.45982 7.37748 1.26276C8.18043 0.45982 9.28533 0 10.4246 0C12.8128 0 14.755 1.94904 14.755 4.35101C14.755 5.68924 14.4324 6.97258 13.7942 8.17356C13.7187 8.31768 13.5746 8.42062 13.4099 8.44121C13.2383 8.4618 13.0804 8.4069 12.9638 8.28337C12.4285 7.72062 11.7079 7.40493 10.9393 7.40493C9.40886 7.40493 8.15984 8.65396 8.15984 10.1844C8.15984 10.8638 8.41376 11.5226 8.87357 12.0373C8.98337 12.1608 9.02455 12.3255 8.99023 12.4834C8.95592 12.6412 8.84612 12.7785 8.702 12.8471C8.42749 12.9706 8.18043 13.0736 7.95395 13.1491C7.79611 13.2177 7.59023 13.2452 7.37748 13.2452ZM4.33041 1.02942C2.51178 1.02942 1.02942 2.51865 1.02942 4.35101C1.02942 9.04513 5.53826 11.6393 7.1167 12.1814C7.24023 12.2295 7.50787 12.2226 7.6314 12.1814C7.65199 12.1746 7.67258 12.1677 7.69317 12.1608C7.3363 11.5706 7.13722 10.8912 7.13722 10.1911C7.13722 8.09114 8.84605 6.38231 10.9461 6.38231C11.7559 6.38231 12.5246 6.6363 13.1697 7.09611C13.5403 6.21767 13.7255 5.29806 13.7255 4.35101C13.7255 2.51865 12.2432 1.02942 10.4246 1.02942C9.39514 1.02942 8.4069 1.52357 7.78925 2.35397C7.59709 2.61475 7.15787 2.61475 6.96571 2.35397C6.34806 1.52357 5.35983 1.02942 4.33041 1.02942Z" fill="white"/>
</svg>
