<svg width="8" height="12" viewBox="0 0 8 12" fill="none" xmlns="http://www.w3.org/2000/svg">
<path d="M3.64645 0.646501C3.84171 0.451239 4.15829 0.451239 4.35355 0.646501L7.53553 3.82848C7.7308 4.02374 7.7308 4.34033 7.53553 4.53559C7.34027 4.73085 7.02369 4.73085 6.82843 4.53559L4 1.70716L1.17157 4.53559C0.976311 4.73085 0.659728 4.73085 0.464466 4.53559C0.269204 4.34033 0.269204 4.02374 0.464466 3.82848L3.64645 0.646501ZM3.5 1.349V1.00005H4.5V1.349H3.5Z" fill="#5B5B5B" fill-opacity="0.74"/>
<path d="M4.35355 11.0516C4.15829 11.2469 3.84171 11.2469 3.64645 11.0516L0.464466 7.86964C0.269204 7.67438 0.269204 7.35779 0.464466 7.16253C0.659728 6.96727 0.976311 6.96727 1.17157 7.16253L4 9.99096L6.82843 7.16253C7.02369 6.96727 7.34027 6.96727 7.53553 7.16253C7.7308 7.35779 7.7308 7.67438 7.53553 7.86964L4.35355 11.0516ZM4.5 10.3491V10.6981H3.5V10.3491H4.5Z" fill="#5B5B5B" fill-opacity="0.74"/>
</svg>
