<svg width="15" height="15" viewBox="0 0 15 15" fill="none" xmlns="http://www.w3.org/2000/svg">
<g clip-path="url(#clip0_1_3316)">
<path d="M11.875 14.2188H3.125C2.50365 14.2179 1.90799 13.9707 1.46863 13.5314C1.02927 13.092 0.782077 12.4963 0.78125 11.875V3.125C0.782077 2.50365 1.02927 1.90799 1.46863 1.46863C1.90799 1.02927 2.50365 0.782077 3.125 0.78125H6.875C6.99932 0.78125 7.11855 0.830636 7.20646 0.918544C7.29436 1.00645 7.34375 1.12568 7.34375 1.25C7.34375 1.37432 7.29436 1.49355 7.20646 1.58146C7.11855 1.66936 6.99932 1.71875 6.875 1.71875H3.125C2.75219 1.71925 2.39479 1.86756 2.13118 2.13118C1.86756 2.39479 1.71925 2.75219 1.71875 3.125V11.875C1.71925 12.2478 1.86756 12.6052 2.13118 12.8688C2.39479 13.1324 2.75219 13.2808 3.125 13.2813H11.875C12.2478 13.2808 12.6052 13.1324 12.8688 12.8688C13.1324 12.6052 13.2808 12.2478 13.2813 11.875V8.125C13.2813 8.00068 13.3306 7.88145 13.4185 7.79354C13.5065 7.70564 13.6257 7.65625 13.75 7.65625C13.8743 7.65625 13.9936 7.70564 14.0815 7.79354C14.1694 7.88145 14.2188 8.00068 14.2188 8.125V11.875C14.2179 12.4963 13.9707 13.092 13.5314 13.5314C13.092 13.9707 12.4963 14.2179 11.875 14.2188Z" fill="white"/>
<path d="M3.75 10.4688C3.69723 10.4687 3.64485 10.4598 3.595 10.4425C3.50334 10.4103 3.42393 10.3504 3.36773 10.2712C3.31153 10.1919 3.28132 10.0972 3.28125 10V9.37502C3.28315 7.84049 3.86309 6.36301 4.90555 5.23693C5.948 4.11085 7.37643 3.41884 8.90625 3.29876V1.25002C8.90633 1.15737 8.93387 1.06682 8.98538 0.989807C9.03689 0.912798 9.11007 0.85278 9.19567 0.817336C9.28128 0.781891 9.37546 0.772609 9.46634 0.790662C9.55721 0.808715 9.6407 0.853292 9.70625 0.918765L14.0813 5.29377C14.127 5.33943 14.1627 5.39404 14.1863 5.45418C14.2099 5.51433 14.2208 5.57869 14.2183 5.64325C14.2159 5.70781 14.2001 5.77116 14.172 5.82933C14.1439 5.88749 14.1041 5.93922 14.055 5.98127L9.68 9.73127C9.61191 9.78961 9.52852 9.8272 9.43971 9.83958C9.3509 9.85195 9.26041 9.8386 9.17896 9.8011C9.09751 9.7636 9.02853 9.70353 8.98019 9.62801C8.93186 9.55248 8.90619 9.46468 8.90625 9.37502V7.34377C8.14048 7.34919 7.38564 7.52603 6.69715 7.8613C6.00865 8.19657 5.40398 8.68176 4.9275 9.28127L4.115 10.2956C4.07086 10.3498 4.01519 10.3935 3.95205 10.4234C3.88891 10.4534 3.81988 10.4689 3.75 10.4688ZM9.84375 2.38189V3.75002C9.84375 3.87434 9.79436 3.99356 9.70646 4.08147C9.61855 4.16938 9.49932 4.21877 9.375 4.21877C8.1433 4.22039 6.95273 4.66218 6.01812 5.46443C5.0835 6.26667 4.46639 7.37653 4.27812 8.59377C4.8484 7.90761 5.56309 7.35577 6.3712 6.97765C7.17931 6.59952 8.06092 6.40442 8.95313 6.40627H9.375C9.49932 6.40627 9.61855 6.45565 9.70646 6.54356C9.79436 6.63147 9.84375 6.7507 9.84375 6.87502V8.35564L13.0625 5.59877L9.84375 2.38189Z" fill="white"/>
</g>
<defs>
<clipPath id="clip0_1_3316">
<rect width="15" height="15" fill="white"/>
</clipPath>
</defs>
</svg>
